<svg width="1584" height="396" viewBox="0 0 1584 396" fill="none" xmlns="http://www.w3.org/2000/svg">
<rect width="1584" height="396" fill="#F5F5F5"/>
<g id="Awesome banner" clip-path="url(#clip0_0_1)">
<rect width="1584" height="396" fill="url(#paint0_linear_0_1)"/>
<ellipse id="Ellipse 2" cx="323" cy="64" rx="285" ry="288" fill="url(#paint1_linear_0_1)" fill-opacity="0.1"/>
<g id="copyright">
<path d="M75.95 334.52L72.30 334.52L72.30 311.16L77.20 311.16L83.70 330.04Q83.60 329.02 83.50 327.62Q83.41 326.23 83.33 324.79Q83.25 323.35 83.25 322.23L83.25 311.16L86.90 311.16L86.90 334.52L82 334.52L75.57 315.64Q75.63 316.57 75.73 317.88Q75.82 319.19 75.89 320.57Q75.95 321.94 75.95 323.10L75.95 334.52M98.80 334.84Q96.46 334.84 94.67 333.96Q92.88 333.08 91.89 331.53Q90.90 329.98 90.90 327.93Q90.90 325.78 92.13 324.18Q93.36 322.58 95.34 322.17L95.34 322.10Q93.65 321.75 92.61 320.38Q91.57 319 91.57 317.11Q91.57 315.26 92.48 313.85Q93.39 312.44 95.02 311.64Q96.66 310.84 98.80 310.84Q100.94 310.84 102.59 311.64Q104.24 312.44 105.15 313.85Q106.06 315.26 106.06 317.11Q106.06 319 105.01 320.38Q103.95 321.75 102.26 322.10L102.26 322.17Q104.24 322.58 105.47 324.18Q106.70 325.78 106.70 327.93Q106.70 329.98 105.71 331.53Q104.72 333.08 102.93 333.96Q101.14 334.84 98.80 334.84M98.80 320.73Q100.30 320.73 101.23 319.82Q102.16 318.90 102.16 317.46Q102.16 315.99 101.23 315.08Q100.30 314.17 98.80 314.17Q97.30 314.17 96.37 315.08Q95.44 315.99 95.44 317.46Q95.44 318.90 96.37 319.82Q97.30 320.73 98.80 320.73M98.80 331.45Q100.56 331.45 101.68 330.42Q102.80 329.40 102.80 327.74Q102.80 326.04 101.68 325Q100.56 323.96 98.80 323.96Q97.04 323.96 95.92 325Q94.80 326.04 94.80 327.74Q94.80 329.40 95.92 330.42Q97.04 331.45 98.80 331.45M114.35 334.52L110.70 334.52L110.70 311.16L115.60 311.16L122.10 330.04Q122 329.02 121.90 327.62Q121.81 326.23 121.73 324.79Q121.65 323.35 121.65 322.23L121.65 311.16L125.30 311.16L125.30 334.52L120.40 334.52L113.97 315.64Q114.03 316.57 114.13 317.88Q114.22 319.19 114.29 320.57Q114.35 321.94 114.35 323.10" fill="white" fill-opacity="0.9"/>
<path d="M161.48 325.24L151.24 325.24L151.24 322.68L161.48 322.68" fill="white" fill-opacity="0.9"/>
<path d="M195.02 334.84Q191.82 334.84 189.96 333.05Q188.11 331.26 188.11 328.12L188.11 317.56Q188.11 314.42 189.96 312.63Q191.82 310.84 195.02 310.84Q198.15 310.84 200.01 312.65Q201.87 314.46 201.87 317.56L198.99 317.56Q198.99 315.58 197.95 314.50Q196.91 313.43 195.02 313.43Q193.13 313.43 192.06 314.50Q190.99 315.58 190.99 317.56L190.99 328.12Q190.99 330.10 192.06 331.18Q193.13 332.25 195.02 332.25Q196.91 332.25 197.95 331.18Q198.99 330.10 198.99 328.12L201.87 328.12Q201.87 331.22 200.01 333.03Q198.15 334.84 195.02 334.84" fill="white" fill-opacity="0.9"/>
<path d="M213.96 334.84Q210.83 334.84 209 333.02Q207.18 331.19 207.18 327.80L207.18 317.88Q207.18 314.49 209 312.66Q210.83 310.84 213.96 310.84Q217.10 310.84 218.92 312.66Q220.75 314.49 220.75 317.85L220.75 327.80Q220.75 331.19 218.92 333.02Q217.10 334.84 213.96 334.84M213.96 332.25Q215.85 332.25 216.86 331.18Q217.87 330.10 217.87 328.12L217.87 317.56Q217.87 315.58 216.86 314.50Q215.85 313.43 213.96 313.43Q212.11 313.43 211.08 314.50Q210.06 315.58 210.06 317.56L210.06 328.12Q210.06 330.10 211.08 331.18Q212.11 332.25 213.96 332.25" fill="white" fill-opacity="0.9"/>
<path d="M228.65 334.52L225.87 334.52L225.87 311.16L230.12 311.16L233.10 321.27L236.20 311.16L240.46 311.16L240.46 334.52L237.67 334.52L237.67 323.48Q237.67 321.91 237.72 319.88Q237.77 317.85 237.87 315.77Q237.96 313.69 238.09 312.02L234.31 324.09L231.82 324.09L228.20 312.31Q228.46 314.68 228.55 317.50Q228.65 320.31 228.65 323.48" fill="white" fill-opacity="0.9"/>
<path d="M247.85 334.52L245.07 334.52L245.07 311.16L249.32 311.16L252.30 321.27L255.40 311.16L259.66 311.16L259.66 334.52L256.87 334.52L256.87 323.48Q256.87 321.91 256.92 319.88Q256.97 317.85 257.07 315.77Q257.16 313.69 257.29 312.02L253.51 324.09L251.02 324.09L247.40 312.31Q247.66 314.68 247.75 317.50Q247.85 320.31 247.85 323.48" fill="white" fill-opacity="0.9"/>
<path d="M271.56 334.84Q268.30 334.84 266.57 333.03Q264.84 331.22 264.84 328.12L264.84 311.16L267.72 311.16L267.72 328.12Q267.72 330.04 268.67 331.16Q269.61 332.28 271.56 332.28Q273.48 332.28 274.44 331.16Q275.40 330.04 275.40 328.12L275.40 311.16L278.28 311.16L278.28 328.12Q278.28 331.26 276.57 333.05Q274.86 334.84 271.56 334.84" fill="white" fill-opacity="0.9"/>
<path d="M286.83 334.52L284.04 334.52L284.04 311.16L287.88 311.16L295.02 331.16Q294.95 330.36 294.87 329.19Q294.79 328.02 294.75 326.73Q294.70 325.43 294.70 324.28L294.70 311.16L297.48 311.16L297.48 334.52L293.64 334.52L286.54 314.52Q286.60 315.29 286.67 316.46Q286.73 317.62 286.78 318.92Q286.83 320.22 286.83 321.40" fill="white" fill-opacity="0.9"/>
<path d="M316.20 334.52L303.72 334.52L303.72 331.90L308.49 331.90L308.49 313.78L303.72 313.78L303.72 311.16L316.20 311.16L316.20 313.78L311.43 313.78L311.43 331.90L316.20 331.90" fill="white" fill-opacity="0.9"/>
<path d="M330.60 334.52L327.72 334.52L327.72 313.78L321.32 313.78L321.32 311.16L337 311.16L337 313.78L330.60 313.78" fill="white" fill-opacity="0.9"/>
<path d="M349.80 334.52L346.92 334.52L346.92 325.78L339.88 311.16L342.95 311.16L347.50 320.76Q347.88 321.56 348.11 322.12Q348.33 322.68 348.39 322.94Q348.46 322.68 348.70 322.12Q348.94 321.56 349.32 320.76L353.87 311.16L356.84 311.16L349.80 325.78" fill="white" fill-opacity="0.9"/>
<path d="M382.83 334.52L380.04 334.52L380.04 311.16L383.88 311.16L391.02 331.16Q390.95 330.36 390.87 329.19Q390.79 328.02 390.75 326.73Q390.70 325.43 390.70 324.28L390.70 311.16L393.48 311.16L393.48 334.52L389.64 334.52L382.54 314.52Q382.60 315.29 382.67 316.46Q382.73 317.62 382.78 318.92Q382.83 320.22 382.83 321.40" fill="white" fill-opacity="0.9"/>
<path d="M405.96 334.84Q402.83 334.84 401 333.02Q399.18 331.19 399.18 327.80L399.18 317.88Q399.18 314.49 401 312.66Q402.83 310.84 405.96 310.84Q409.10 310.84 410.92 312.66Q412.75 314.49 412.75 317.85L412.75 327.80Q412.75 331.19 410.92 333.02Q409.10 334.84 405.96 334.84M405.96 332.25Q407.85 332.25 408.86 331.18Q409.87 330.10 409.87 328.12L409.87 317.56Q409.87 315.58 408.86 314.50Q407.85 313.43 405.96 313.43Q404.11 313.43 403.08 314.50Q402.06 315.58 402.06 317.56L402.06 328.12Q402.06 330.10 403.08 331.18Q404.11 332.25 405.96 332.25" fill="white" fill-opacity="0.9"/>
<path d="M424.55 334.52L418.51 334.52L418.51 311.16L424.55 311.16Q426.83 311.16 428.47 312.02Q430.12 312.89 431.03 314.46Q431.95 316.02 431.95 318.17L431.95 327.48Q431.95 329.62 431.03 331.21Q430.12 332.79 428.47 333.66Q426.83 334.52 424.55 334.52M421.39 313.72L421.39 331.96L424.55 331.96Q426.67 331.96 427.87 330.78Q429.07 329.59 429.07 327.48L429.07 318.17Q429.07 316.09 427.87 314.90Q426.67 313.72 424.55 313.72" fill="white" fill-opacity="0.9"/>
<path d="M451.40 334.52L437.96 334.52L437.96 311.16L451.40 311.16L451.40 313.78L440.81 313.78L440.81 321.02L450.28 321.02L450.28 323.58L440.81 323.58L440.81 331.90L451.40 331.90" fill="white" fill-opacity="0.9"/>
<path d="M463.69 334.84Q460.30 334.84 458.28 333.05Q456.27 331.26 456.27 328.12L459.15 328.12Q459.15 330.07 460.39 331.18Q461.64 332.28 463.69 332.28Q465.67 332.28 466.86 331.13Q468.04 329.98 468.04 328.12Q468.04 326.71 467.29 325.67Q466.54 324.63 465.13 324.25L461.58 323.26Q459.37 322.62 458.11 320.97Q456.84 319.32 456.84 317.08Q456.84 315.22 457.67 313.82Q458.51 312.41 460.01 311.62Q461.51 310.84 463.47 310.84Q465.45 310.84 466.97 311.62Q468.49 312.41 469.35 313.80Q470.22 315.19 470.22 317.02L467.34 317.02Q467.34 315.42 466.25 314.41Q465.16 313.40 463.47 313.40Q461.77 313.40 460.71 314.41Q459.66 315.42 459.66 317.02Q459.66 318.30 460.35 319.21Q461.03 320.12 462.28 320.47L465.93 321.50Q468.27 322.14 469.56 323.91Q470.86 325.69 470.86 328.12Q470.86 331.19 468.91 333.02Q466.95 334.84 463.69 334.84" fill="white" fill-opacity="0.9"/>
</g>
<path d="M83.20 197.64L73.12 197.64L73.12 180.12L75.28 180.12L75.28 195.67L83.20 195.67" fill="white" fill-opacity="0.7"/>
<path d="M90.45 197.88Q88.41 197.88 87.21 196.74Q86.01 195.60 86.01 193.75Q86.01 192.53 86.56 191.62Q87.11 190.70 88.10 190.19Q89.08 189.67 90.35 189.67L94.43 189.67L94.43 188.64Q94.43 186.07 91.62 186.07Q90.38 186.07 89.61 186.53Q88.84 186.98 88.79 187.80L86.63 187.80Q86.75 186.24 88.08 185.22Q89.42 184.20 91.62 184.20Q94.02 184.20 95.31 185.35Q96.59 186.50 96.59 188.57L96.59 197.64L94.46 197.64L94.46 195.24L94.41 195.24Q94.22 196.46 93.18 197.17Q92.15 197.88 90.45 197.88M90.98 196.06Q92.56 196.06 93.50 195.29Q94.43 194.52 94.43 193.20L94.43 191.35L90.59 191.35Q89.54 191.35 88.88 191.99Q88.22 192.62 88.22 193.68Q88.22 194.78 88.95 195.42Q89.68 196.06 90.98 196.06" fill="white" fill-opacity="0.7"/>
<path d="M106.77 197.88Q105.28 197.88 104.32 197.15Q103.36 196.42 103.19 195.12L103.17 195.12L103.17 197.64L101.01 197.64L101.01 180.12L103.17 180.12L103.17 183.96L103.12 186.96L103.14 186.96Q103.34 185.69 104.31 184.94Q105.28 184.20 106.77 184.20Q108.76 184.20 109.94 185.52Q111.11 186.84 111.11 189.12L111.11 192.98Q111.11 195.24 109.94 196.56Q108.76 197.88 106.77 197.88M106.05 196.01Q107.42 196.01 108.18 195.29Q108.95 194.57 108.95 192.96L108.95 189.12Q108.95 187.49 108.18 186.78Q107.42 186.07 106.05 186.07Q104.73 186.07 103.95 186.91Q103.17 187.75 103.17 189.24L103.17 192.84Q103.17 194.33 103.95 195.17Q104.73 196.01 106.05 196.01" fill="white" fill-opacity="0.7"/>
<path d="M120.40 197.83Q118.02 197.83 116.62 196.44Q115.22 195.05 115.22 192.55L115.22 189.53Q115.22 187.01 116.61 185.63QNaN 184.25 120.40 184.25Q122.80 184.25 124.19 185.63Q125.58 187.01 125.58 189.53L125.58 192.55Q125.58 195.05 124.18 196.44Q122.78 197.83 120.40 197.83M120.40 195.91Q121.82 195.91 122.62 195.12Q123.42 194.33 123.42 192.79L123.42 189.29Q123.42 187.75 122.62 186.96Q121.82 186.17 120.40 186.17Q119.01 186.17 118.19 186.96Q117.38 187.75 117.38 189.29L117.38 192.79Q117.38 194.33 118.19 195.12Q119.01 195.91 120.40 195.91" fill="white" fill-opacity="0.7"/>
<path d="M134.78 197.88Q132.50 197.88 131.13 196.52Q129.76 195.17 129.76 192.84L129.76 184.44L131.92 184.44L131.92 192.84Q131.92 194.28 132.69 195.13Q133.46 195.98 134.78 195.98Q136.12 195.98 136.90 195.13Q137.68 194.28 137.68 192.84L137.68 184.44L139.84 184.44L139.84 192.84Q139.84 195.17 138.45 196.52Q137.06 197.88 134.78 197.88" fill="white" fill-opacity="0.7"/>
<path d="M146.85 197.64L144.69 197.64L144.69 184.44L146.85 184.44L146.85 186.96L146.90 186.96Q147.06 185.69 147.98 184.94Q148.89 184.20 150.42 184.20Q152.49 184.20 153.60 185.44Q154.72 186.67 154.72 188.95L154.72 190.08L152.56 190.08L152.56 188.95Q152.56 186.07 149.75 186.07Q148.34 186.07 147.59 186.89Q146.85 187.70 146.85 189.24" fill="white" fill-opacity="0.7"/>
<path d="M183.28 197.64L173.20 197.64L173.20 180.12L183.28 180.12L183.28 182.09L175.34 182.09L175.34 187.51L182.44 187.51L182.44 189.43L175.34 189.43L175.34 195.67L183.28 195.67" fill="white" fill-opacity="0.7"/>
<path d="M188.66 197.64L186.64 197.64L186.64 184.44L188.51 184.44L188.51 186.19L188.56 186.19Q188.68 185.30 189.27 184.75Q189.86 184.20 190.77 184.20Q191.63 184.20 192.23 184.70Q192.83 185.21 193.10 186.07L193.12 186.07Q193.29 185.21 193.88 184.70Q194.46 184.20 195.38 184.20Q196.65 184.20 197.40 185.15Q198.16 186.10 198.16 187.61L198.16 197.64L196.14 197.64L196.14 187.58Q196.14 186.79 195.76 186.32Q195.38 185.86 194.70 185.86Q194.06 185.86 193.67 186.31Q193.29 186.77 193.29 187.56L193.29 197.64L191.51 197.64L191.51 187.58Q191.51 186.79 191.13 186.32Q190.74 185.86 190.10 185.86Q189.42 185.86 189.04 186.31Q188.66 186.77 188.66 187.56" fill="white" fill-opacity="0.7"/>
<path d="M203.97 201.96L201.81 201.96L201.81 184.44L203.97 184.44L203.97 186.96L203.99 186.96Q204.16 185.66 205.12 184.93Q206.08 184.20 207.57 184.20Q209.56 184.20 210.74 185.51Q211.91 186.82 211.91 189.10L211.91 192.96Q211.91 195.24 210.74 196.56Q209.56 197.88 207.57 197.88Q206.08 197.88 205.12 197.14Q204.16 196.39 203.99 195.12L203.92 195.12L203.97 198.12L203.97 201.96M206.85 196.01Q208.22 196.01 208.98 195.29Q209.75 194.57 209.75 192.96L209.75 189.12Q209.75 187.49 208.98 186.78Q208.22 186.07 206.85 186.07Q205.53 186.07 204.75 186.91Q203.97 187.75 203.97 189.24L203.97 192.84Q203.97 194.33 204.75 195.17Q205.53 196.01 206.85 196.01" fill="white" fill-opacity="0.7"/>
<path d="M227.20 197.64L223.12 197.64Q221.37 197.64 220.32 196.62Q219.28 195.60 219.28 193.92L219.28 182.09L214.72 182.09L214.72 180.12L221.44 180.12L221.44 193.92Q221.44 194.74 221.90 195.20Q222.35 195.67 223.12 195.67L227.20 195.67" fill="white" fill-opacity="0.7"/>
<path d="M235.60 197.83Q233.22 197.83 231.82 196.44Q230.42 195.05 230.42 192.55L230.42 189.53Q230.42 187.01 231.81 185.63Q233.20 184.25 235.60 184.25QNaN 184.25 239.39 185.63Q240.78 187.01 240.78 189.53L240.78 192.55Q240.78 195.05 239.38 196.44Q237.98 197.83 235.60 197.83M235.60 195.91Q237.02 195.91 237.82 195.12Q238.62 194.33 238.62 192.79L238.62 189.29Q238.62 187.75 237.82 186.96Q237.02 186.17 235.60 186.17Q234.21 186.17 233.39 186.96Q232.58 187.75 232.58 189.29L232.58 192.79Q232.58 194.33 233.39 195.12Q234.21 195.91 235.60 195.91" fill="white" fill-opacity="0.7"/>
<path d="M249.33 201.96L247.07 201.96L249.02 196.82L244.10 184.44L246.42 184.44L249.54 192.60Q249.74 193.08 249.90 193.61Q250.07 194.14 250.14 194.52Q250.22 194.14 250.38 193.61Q250.55 193.08 250.72 192.60L253.62 184.44L255.90 184.44" fill="white" fill-opacity="0.7"/>
<path d="M260.66 197.64L258.64 197.64L258.64 184.44L260.51 184.44L260.51 186.19L260.56 186.19Q260.68 185.30 261.27 184.75Q261.86 184.20 262.77 184.20Q263.63 184.20 264.23 184.70Q264.83 185.21 265.10 186.07L265.12 186.07Q265.29 185.21 265.88 184.70Q266.46 184.20 267.38 184.20Q268.65 184.20 269.40 185.15Q270.16 186.10 270.16 187.61L270.16 197.64L268.14 197.64L268.14 187.58Q268.14 186.79 267.76 186.32Q267.38 185.86 266.70 185.86Q266.06 185.86 265.67 186.31Q265.29 186.77 265.29 187.56L265.29 197.64L263.51 197.64L263.51 187.58Q263.51 186.79 263.13 186.32Q262.74 185.86 262.10 185.86Q261.42 185.86 261.04 186.31Q260.66 186.77 260.66 187.56" fill="white" fill-opacity="0.7"/>
<path d="M278.80 197.88Q276.47 197.88 275.04 196.48Q273.62 195.07 273.62 192.60L273.62 189.48Q273.62 187.01 275.04 185.60Q276.47 184.20 278.80 184.20Q280.36 184.20 281.52 184.82Q282.69 185.45 283.34 186.58Q283.98 187.70 283.98 189.24L283.98 191.59L275.73 191.59L275.73 192.84Q275.73 194.30 276.57 195.16Q277.41 196.01 278.80 196.01Q280 196.01 280.78 195.54Q281.56 195.07 281.73 194.28L283.89 194.28Q283.67 195.94 282.28 196.91Q280.89 197.88 278.80 197.88M275.73 189.24L275.73 189.91L281.87 189.91L281.87 189.24Q281.87 187.68 281.07 186.83Q280.26 185.98 278.80 185.98Q277.34 185.98 276.53 186.83Q275.73 187.68 275.73 189.24" fill="white" fill-opacity="0.7"/>
<path d="M290.37 197.64L288.21 197.64L288.21 184.44L290.37 184.44L290.37 186.96L290.39 186.96Q290.56 185.64 291.47 184.92Q292.38 184.20 293.90 184.20Q295.89 184.20 297.06 185.42Q298.24 186.65 298.24 188.76L298.24 197.64L296.08 197.64L296.08 189.14Q296.08 187.63 295.32 186.83Q294.57 186.02 293.27 186.02Q291.93 186.02 291.15 186.86Q290.37 187.70 290.37 189.24" fill="white" fill-opacity="0.7"/>
<path d="M312.76 197.64L308.92 197.64Q307.29 197.64 306.30 196.69Q305.32 195.74 305.32 194.16L305.32 186.41L301.53 186.41L301.53 184.44L305.32 184.44L305.32 180.72L307.48 180.72L307.48 184.44L312.88 184.44L312.88 186.41L307.48 186.41L307.48 194.16Q307.48 194.83 307.88 195.25Q308.27 195.67 308.92 195.67L312.76 195.67" fill="white" fill-opacity="0.7"/>
<path d="M336.50 197.88Q333.95 197.88 332.44 196.54Q330.93 195.19 330.93 192.84L333.09 192.84Q333.09 194.30 334.02 195.13Q334.96 195.96 336.50 195.96Q337.98 195.96 338.87 195.10Q339.76 194.23 339.76 192.84Q339.76 191.78 339.20 191Q338.63 190.22 337.58 189.94L334.91 189.19Q333.26 188.71 332.31 187.48Q331.36 186.24 331.36 184.56Q331.36 183.17 331.98 182.11Q332.61 181.06 333.74 180.47Q334.86 179.88 336.33 179.88Q337.82 179.88 338.96 180.47Q340.10 181.06 340.74 182.10Q341.39 183.14 341.39 184.51L339.23 184.51Q339.23 183.31 338.42 182.56Q337.60 181.80 336.33 181.80Q335.06 181.80 334.26 182.56Q333.47 183.31 333.47 184.51Q333.47 185.47 333.99 186.16Q334.50 186.84 335.44 187.10L338.18 187.87Q339.93 188.35 340.90 189.68Q341.87 191.02 341.87 192.84Q341.87 195.14 340.41 196.51Q338.94 197.88 336.50 197.88" fill="white" fill-opacity="0.7"/>
<path d="M348.09 197.64L345.93 197.64L345.93 180.12L348.09 180.12L348.09 189.89L350.61 189.89L354.30 184.44L356.78 184.44L352.53 190.73L357.02 197.64L354.50 197.64L350.66 191.76L348.09 191.76" fill="white" fill-opacity="0.7"/>
<path d="M371.32 197.64L360.04 197.64L360.04 195.67L364.72 195.67L364.72 186.41L360.52 186.41L360.52 184.44L366.88 184.44L366.88 195.67L371.32 195.67L371.32 197.64M365.56 182.06Q364.77 182.06 364.31 181.66Q363.86 181.25 363.86 180.55Q363.86 179.83 364.31 179.41Q364.77 178.99 365.56 178.99Q366.35 178.99 366.81 179.41Q367.26 179.83 367.26 180.55Q367.26 181.25 366.81 181.66Q366.35 182.06 365.56 182.06" fill="white" fill-opacity="0.7"/>
<path d="M385.60 197.64L381.52 197.64Q379.77 197.64 378.72 196.62Q377.68 195.60 377.68 193.92L377.68 182.09L373.12 182.09L373.12 180.12L379.84 180.12L379.84 193.92Q379.84 194.74 380.30 195.20Q380.75 195.67 381.52 195.67L385.60 195.67" fill="white" fill-opacity="0.7"/>
<path d="M400 197.64L395.92 197.64Q394.17 197.64 393.12 196.62Q392.08 195.60 392.08 193.92L392.08 182.09L387.52 182.09L387.52 180.12L394.24 180.12L394.24 193.92Q394.24 194.74 394.70 195.20Q395.15 195.67 395.92 195.67L400 195.67" fill="white" fill-opacity="0.7"/>
<path d="M422.34 197.64L417.81 197.64L417.81 180.12L422.34 180.12Q424.05 180.12 425.28 180.77Q426.52 181.42 427.20 182.59Q427.89 183.77 427.89 185.38L427.89 192.36Q427.89 193.97 427.20 195.16Q426.52 196.34 425.28 196.99Q424.05 197.64 422.34 197.64M419.97 182.04L419.97 195.72L422.34 195.72Q423.93 195.72 424.83 194.83Q425.73 193.94 425.73 192.36L425.73 185.38Q425.73 183.82 424.83 182.93Q423.93 182.04 422.34 182.04" fill="white" fill-opacity="0.7"/>
<path d="M437.20 197.88Q434.87 197.88 433.44 196.48Q432.02 195.07 432.02 192.60L432.02 189.48Q432.02 187.01 433.44 185.60Q434.87 184.20 437.20 184.20Q438.76 184.20 439.92 184.82Q441.09 185.45 441.74 186.58Q442.38 187.70 442.38 189.24L442.38 191.59L434.13 191.59L434.13 192.84Q434.13 194.30 434.97 195.16Q435.81 196.01 437.20 196.01Q438.40 196.01 439.18 195.54Q439.96 195.07 440.13 194.28L442.29 194.28Q442.07 195.94 440.68 196.91Q439.29 197.88 437.20 197.88M434.13 189.24L434.13 189.91L440.27 189.91L440.27 189.24Q440.27 187.68 439.47 186.83Q438.66 185.98 437.20 185.98Q435.74 185.98 434.93 186.83Q434.13 187.68 434.13 189.24" fill="white" fill-opacity="0.7"/>
<path d="M453.02 197.64L450.18 197.64L445.70 184.44L448.02 184.44L450.90 193.32Q451.17 194.11 451.36 194.84Q451.55 195.58 451.65 195.98Q451.77 195.58 451.94 194.84Q452.10 194.11 452.34 193.32L455.22 184.44L457.50 184.44" fill="white" fill-opacity="0.7"/>
<path d="M466 197.88Q463.67 197.88 462.24 196.48Q460.82 195.07 460.82 192.60L460.82 189.48Q460.82 187.01 462.24 185.60Q463.67 184.20 466 184.20Q467.56 184.20 468.72 184.82Q469.89 185.45 470.54 186.58Q471.18 187.70 471.18 189.24L471.18 191.59L462.93 191.59L462.93 192.84Q462.93 194.30 463.77 195.16Q464.61 196.01 466 196.01Q467.20 196.01 467.98 195.54Q468.76 195.07 468.93 194.28L471.09 194.28Q470.87 195.94 469.48 196.91Q468.09 197.88 466 197.88M462.93 189.24L462.93 189.91L469.07 189.91L469.07 189.24Q469.07 187.68 468.27 186.83Q467.46 185.98 466 185.98Q464.54 185.98 463.73 186.83Q462.93 187.68 462.93 189.24" fill="white" fill-opacity="0.7"/>
<path d="M486.40 197.64L482.32 197.64Q480.57 197.64 479.52 196.62Q478.48 195.60 478.48 193.92L478.48 182.09L473.92 182.09L473.92 180.12L480.64 180.12L480.64 193.92Q480.64 194.74 481.10 195.20Q481.55 195.67 482.32 195.67L486.40 195.67" fill="white" fill-opacity="0.7"/>
<path d="M494.80 197.83Q492.42 197.83 491.02 196.44Q489.62 195.05 489.62 192.55L489.62 189.53Q489.62 187.01 491.01 185.63Q492.40 184.25 494.80 184.25Q497.20 184.25 498.59 185.63Q499.98 187.01 499.98 189.53L499.98 192.55Q499.98 195.05 498.58 196.44Q497.18 197.83 494.80 197.83M494.80 195.91Q496.22 195.91 497.02 195.12Q497.82 194.33 497.82 192.79L497.82 189.29Q497.82 187.75 497.02 186.96Q496.22 186.17 494.80 186.17Q493.41 186.17 492.59 186.96Q491.78 187.75 491.78 189.29L491.78 192.79Q491.78 194.33 492.59 195.12Q493.41 195.91 494.80 195.91" fill="white" fill-opacity="0.7"/>
<path d="M506.37 201.96L504.21 201.96L504.21 184.44L506.37 184.44L506.37 186.96L506.39 186.96Q506.56 185.66 507.52 184.93Q508.48 184.20 509.97 184.20Q511.96 184.20 513.14 185.51Q514.31 186.82 514.31 189.10L514.31 192.96Q514.31 195.24 513.14 196.56Q511.96 197.88 509.97 197.88Q508.48 197.88 507.52 197.14Q506.56 196.39 506.39 195.12L506.32 195.12L506.37 198.12L506.37 201.96M509.25 196.01Q510.62 196.01 511.38 195.29Q512.15 194.57 512.15 192.96L512.15 189.12Q512.15 187.49 511.38 186.78Q510.62 186.07 509.25 186.07Q507.93 186.07 507.15 186.91Q506.37 187.75 506.37 189.24L506.37 192.84Q506.37 194.33 507.15 195.17Q507.93 196.01 509.25 196.01" fill="white" fill-opacity="0.7"/>
<path d="M519.86 197.64L517.84 197.64L517.84 184.44L519.71 184.44L519.71 186.19L519.76 186.19Q519.88 185.30 520.47 184.75Q521.06 184.20 521.97 184.20Q522.83 184.20 523.43 184.70Q524.03 185.21 524.30 186.07L524.32 186.07Q524.49 185.21 525.08 184.70Q525.66 184.20 526.58 184.20Q527.85 184.20 528.60 185.15Q529.36 186.10 529.36 187.61L529.36 197.64L527.34 197.64L527.34 187.58Q527.34 186.79 526.96 186.32Q526.58 185.86 525.90 185.86Q525.26 185.86 524.87 186.31Q524.49 186.77 524.49 187.56L524.49 197.64L522.71 197.64L522.71 187.58Q522.71 186.79 522.33 186.32Q521.94 185.86 521.30 185.86Q520.62 185.86 520.24 186.31Q519.86 186.77 519.86 187.56" fill="white" fill-opacity="0.7"/>
<path d="M538 197.88Q535.67 197.88 534.24 196.48Q532.82 195.07 532.82 192.60L532.82 189.48Q532.82 187.01 534.24 185.60Q535.67 184.20 538 184.20Q539.56 184.20 540.72 184.82Q541.89 185.45 542.54 186.58Q543.18 187.70 543.18 189.24L543.18 191.59L534.93 191.59L534.93 192.84Q534.93 194.30 535.77 195.16Q536.61 196.01 538 196.01Q539.20 196.01 539.98 195.54Q540.76 195.07 540.93 194.28L543.09 194.28Q542.87 195.94 541.48 196.91Q540.09 197.88 538 197.88M534.93 189.24L534.93 189.91L541.07 189.91L541.07 189.24Q541.07 187.68 540.27 186.83Q539.46 185.98 538 185.98Q536.54 185.98 535.73 186.83Q534.93 187.68 534.93 189.24" fill="white" fill-opacity="0.7"/>
<path d="M549.57 197.64L547.41 197.64L547.41 184.44L549.57 184.44L549.57 186.96L549.59 186.96Q549.76 185.64 550.67 184.92Q551.58 184.20 553.10 184.20Q555.09 184.20 556.26 185.42Q557.44 186.65 557.44 188.76L557.44 197.64L555.28 197.64L555.28 189.14Q555.28 187.63 554.52 186.83Q553.77 186.02 552.47 186.02Q551.13 186.02 550.35 186.86Q549.57 187.70 549.57 189.24" fill="white" fill-opacity="0.7"/>
<path d="M571.96 197.64L568.12 197.64Q566.49 197.64 565.50 196.69Q564.52 195.74 564.52 194.16L564.52 186.41L560.73 186.41L560.73 184.44L564.52 184.44L564.52 180.72L566.68 180.72L566.68 184.44L572.08 184.44L572.08 186.41L566.68 186.41L566.68 194.16Q566.68 194.83 567.08 195.25Q567.47 195.67 568.12 195.67L571.96 195.67" fill="white" fill-opacity="0.7"/>
<path d="M600.88 197.64L590.80 197.64L590.80 180.12L600.88 180.12L600.88 182.09L592.94 182.09L592.94 187.51L600.04 187.51L600.04 189.43L592.94 189.43L592.94 195.67L600.88 195.67" fill="white" fill-opacity="0.7"/>
<path d="M607.17 197.64L605.01 197.64L605.01 184.44L607.17 184.44L607.17 186.96L607.19 186.96Q607.36 185.64 608.27 184.92Q609.18 184.20 610.70 184.20Q612.69 184.20 613.86 185.42Q615.04 186.65 615.04 188.76L615.04 197.64L612.88 197.64L612.88 189.14Q612.88 187.63 612.12 186.83Q611.37 186.02 610.07 186.02Q608.73 186.02 607.95 186.86Q607.17 187.70 607.17 189.24" fill="white" fill-opacity="0.7"/>
<path d="M629.56 197.64L625.72 197.64Q624.09 197.64 623.10 196.69Q622.12 195.74 622.12 194.16L622.12 186.41L618.33 186.41L618.33 184.44L622.12 184.44L622.12 180.72L624.28 180.72L624.28 184.44L629.68 184.44L629.68 186.41L624.28 186.41L624.28 194.16Q624.28 194.83 624.68 195.25Q625.07 195.67 625.72 195.67L629.56 195.67" fill="white" fill-opacity="0.7"/>
<path d="M636.45 197.64L634.29 197.64L634.29 184.44L636.45 184.44L636.45 186.96L636.50 186.96Q636.66 185.69 637.58 184.94Q638.49 184.20 640.02 184.20Q642.09 184.20 643.20 185.44Q644.32 186.67 644.32 188.95L644.32 190.08L642.16 190.08L642.16 188.95Q642.16 186.07 639.35 186.07Q637.94 186.07 637.19 186.89Q636.45 187.70 636.45 189.24" fill="white" fill-opacity="0.7"/>
<path d="M653.20 197.88Q650.87 197.88 649.44 196.48Q648.02 195.07 648.02 192.60L648.02 189.48Q648.02 187.01 649.44 185.60Q650.87 184.20 653.20 184.20Q654.76 184.20 655.92 184.82Q657.09 185.45 657.74 186.58Q658.38 187.70 658.38 189.24L658.38 191.59L650.13 191.59L650.13 192.84Q650.13 194.30 650.97 195.16Q651.81 196.01 653.20 196.01Q654.40 196.01 655.18 195.54Q655.96 195.07 656.13 194.28L658.29 194.28Q658.07 195.94 656.68 196.91Q655.29 197.88 653.20 197.88M650.13 189.24L650.13 189.91L656.27 189.91L656.27 189.24Q656.27 187.68 655.47 186.83Q654.66 185.98 653.20 185.98Q651.74 185.98 650.93 186.83Q650.13 187.68 650.13 189.24" fill="white" fill-opacity="0.7"/>
<path d="M664.77 201.96L662.61 201.96L662.61 184.44L664.77 184.44L664.77 186.96L664.79 186.96Q664.96 185.66 665.92 184.93Q666.88 184.20 668.37 184.20Q670.36 184.20 671.54 185.51Q672.71 186.82 672.71 189.10L672.71 192.96Q672.71 195.24 671.54 196.56Q670.36 197.88 668.37 197.88Q666.88 197.88 665.92 197.14Q664.96 196.39 664.79 195.12L664.72 195.12L664.77 198.12L664.77 201.96M667.65 196.01Q669.02 196.01 669.78 195.29Q670.55 194.57 670.55 192.96L670.55 189.12Q670.55 187.49 669.78 186.78Q669.02 186.07 667.65 186.07Q666.33 186.07 665.55 186.91Q664.77 187.75 664.77 189.24L664.77 192.84Q664.77 194.33 665.55 195.17Q666.33 196.01 667.65 196.01" fill="white" fill-opacity="0.7"/>
<path d="M679.65 197.64L677.49 197.64L677.49 184.44L679.65 184.44L679.65 186.96L679.70 186.96Q679.86 185.69 680.78 184.94Q681.69 184.20 683.22 184.20Q685.29 184.20 686.40 185.44Q687.52 186.67 687.52 188.95L687.52 190.08L685.36 190.08L685.36 188.95Q685.36 186.07 682.55 186.07Q681.14 186.07 680.39 186.89Q679.65 187.70 679.65 189.24" fill="white" fill-opacity="0.7"/>
<path d="M696.40 197.88Q694.07 197.88 692.64 196.48Q691.22 195.07 691.22 192.60L691.22 189.48Q691.22 187.01 692.64 185.60Q694.07 184.20 696.40 184.20Q697.96 184.20 699.12 184.82Q700.29 185.45 700.94 186.58Q701.58 187.70 701.58 189.24L701.58 191.59L693.33 191.59L693.33 192.84Q693.33 194.30 694.17 195.16Q695.01 196.01 696.40 196.01Q697.60 196.01 698.38 195.54Q699.16 195.07 699.33 194.28L701.49 194.28Q701.27 195.94 699.88 196.91Q698.49 197.88 696.40 197.88M693.33 189.24L693.33 189.91L699.47 189.91L699.47 189.24Q699.47 187.68 698.67 186.83Q697.86 185.98 696.40 185.98Q694.94 185.98 694.13 186.83Q693.33 187.68 693.33 189.24" fill="white" fill-opacity="0.7"/>
<path d="M707.97 197.64L705.81 197.64L705.81 184.44L707.97 184.44L707.97 186.96L707.99 186.96Q708.16 185.64 709.07 184.92Q709.98 184.20 711.50 184.20Q713.49 184.20 714.66 185.42Q715.84 186.65 715.84 188.76L715.84 197.64L713.68 197.64L713.68 189.14Q713.68 187.63 712.92 186.83Q712.17 186.02 710.87 186.02Q709.53 186.02 708.75 186.86Q707.97 187.70 707.97 189.24" fill="white" fill-opacity="0.7"/>
<path d="M725.20 197.88Q722.87 197.88 721.44 196.48Q720.02 195.07 720.02 192.60L720.02 189.48Q720.02 187.01 721.44 185.60Q722.87 184.20 725.20 184.20Q726.76 184.20 727.92 184.82Q729.09 185.45 729.74 186.58Q730.38 187.70 730.38 189.24L730.38 191.59L722.13 191.59L722.13 192.84Q722.13 194.30 722.97 195.16Q723.81 196.01 725.20 196.01Q726.40 196.01 727.18 195.54Q727.96 195.07 728.13 194.28L730.29 194.28Q730.07 195.94 728.68 196.91Q727.29 197.88 725.20 197.88M722.13 189.24L722.13 189.91L728.27 189.91L728.27 189.24Q728.27 187.68 727.47 186.83Q726.66 185.98 725.20 185.98Q723.74 185.98 722.93 186.83Q722.13 187.68 722.13 189.24" fill="white" fill-opacity="0.7"/>
<path d="M739.58 197.88Q737.30 197.88 735.93 196.52Q734.56 195.17 734.56 192.84L734.56 184.44L736.72 184.44L736.72 192.84Q736.72 194.28 737.49 195.13Q738.26 195.98 739.58 195.98Q740.92 195.98 741.70 195.13Q742.48 194.28 742.48 192.84L742.48 184.44L744.64 184.44L744.64 192.84Q744.64 195.17 743.25 196.52Q741.86 197.88 739.58 197.88" fill="white" fill-opacity="0.7"/>
<path d="M751.65 197.64L749.49 197.64L749.49 184.44L751.65 184.44L751.65 186.96L751.70 186.96Q751.86 185.69 752.78 184.94Q753.69 184.20 755.22 184.20Q757.29 184.20 758.40 185.44Q759.52 186.67 759.52 188.95L759.52 190.08L757.36 190.08L757.36 188.95Q757.36 186.07 754.55 186.07Q753.14 186.07 752.39 186.89Q751.65 187.70 751.65 189.24" fill="white" fill-opacity="0.7"/>
<path d="M768.93 197.83L767.87 197.83Q765.66 197.83 764.45 196.84Q763.24 195.84 763.24 194.02L765.40 194.02Q765.40 194.93 766.05 195.44Q766.70 195.96 767.87 195.96L768.93 195.96Q770.13 195.96 770.79 195.43Q771.45 194.90 771.45 193.94Q771.45 192.24 769.89 192.02L766.24 191.50Q764.90 191.30 764.15 190.38Q763.41 189.46 763.41 187.94Q763.41 186.22 764.60 185.23Q765.78 184.25 767.87 184.25L768.93 184.25Q770.85 184.25 772.06 185.20Q773.27 186.14 773.37 187.68L771.18 187.68Q771.14 186.98 770.52 186.53Q769.91 186.07 768.93 186.07L767.87 186.07Q766.77 186.07 766.14 186.58Q765.52 187.08 765.52 187.94Q765.52 189.34 766.79 189.53L770.20 190.01Q773.56 190.49 773.56 193.94Q773.56 195.79 772.35 196.81Q771.14 197.83 768.93 197.83" fill="white" fill-opacity="0.7"/>
<path d="M779.97 197.64L777.81 197.64L777.81 180.12L779.97 180.12L779.97 186.96L779.99 186.96Q780.16 185.64 781.07 184.92Q781.98 184.20 783.50 184.20Q785.49 184.20 786.66 185.42Q787.84 186.65 787.84 188.76L787.84 197.64L785.68 197.64L785.68 189.12Q785.68 187.63 784.92 186.83Q784.17 186.02 782.87 186.02Q781.53 186.02 780.75 186.86Q779.97 187.70 779.97 189.24" fill="white" fill-opacity="0.7"/>
<path d="M803.32 197.64L792.04 197.64L792.04 195.67L796.72 195.67L796.72 186.41L792.52 186.41L792.52 184.44L798.88 184.44L798.88 195.67L803.32 195.67L803.32 197.64M797.56 182.06Q796.77 182.06 796.31 181.66Q795.86 181.25 795.86 180.55Q795.86 179.83 796.31 179.41Q796.77 178.99 797.56 178.99Q798.35 178.99 798.81 179.41Q799.26 179.83 799.26 180.55Q799.26 181.25 798.81 181.66Q798.35 182.06 797.56 182.06" fill="white" fill-opacity="0.7"/>
<path d="M808.77 201.96L806.61 201.96L806.61 184.44L808.77 184.44L808.77 186.96L808.79 186.96Q808.96 185.66 809.92 184.93Q810.88 184.20 812.37 184.20Q814.36 184.20 815.54 185.51Q816.71 186.82 816.71 189.10L816.71 192.96Q816.71 195.24 815.54 196.56Q814.36 197.88 812.37 197.88Q810.88 197.88 809.92 197.14Q808.96 196.39 808.79 195.12L808.72 195.12L808.77 198.12L808.77 201.96M811.65 196.01Q813.02 196.01 813.78 195.29Q814.55 194.57 814.55 192.96L814.55 189.12Q814.55 187.49 813.78 186.78Q813.02 186.07 811.65 186.07Q810.33 186.07 809.55 186.91Q808.77 187.75 808.77 189.24L808.77 192.84Q808.77 194.33 809.55 195.17Q810.33 196.01 811.65 196.01" fill="white" fill-opacity="0.7"/>
<path d="M837.02 197.64L834.93 197.64L834.93 180.12L838.12 180.12L840.35 187.70L842.68 180.12L845.87 180.12L845.87 197.64L843.78 197.64L843.78 189.36Q843.78 188.18 843.82 186.66Q843.86 185.14 843.93 183.58Q844 182.02 844.10 180.77L841.26 189.82L839.39 189.82L836.68 180.98Q836.87 182.76 836.94 184.87Q837.02 186.98 837.02 189.36" fill="white" fill-opacity="0.7"/>
<path d="M860.92 197.64L849.64 197.64L849.64 195.67L854.32 195.67L854.32 186.41L850.12 186.41L850.12 184.44L856.48 184.44L856.48 195.67L860.92 195.67L860.92 197.64M855.16 182.06Q854.37 182.06 853.91 181.66Q853.46 181.25 853.46 180.55Q853.46 179.83 853.91 179.41Q854.37 178.99 855.16 178.99Q855.95 178.99 856.41 179.41Q856.86 179.83 856.86 180.55Q856.86 181.25 856.41 181.66Q855.95 182.06 855.16 182.06" fill="white" fill-opacity="0.7"/>
<path d="M874.24 197.64L864.16 197.64L864.16 195.48L871.55 186.41L864.35 186.41L864.35 184.44L873.98 184.44L873.98 186.60L866.44 195.67L874.24 195.67" fill="white" fill-opacity="0.7"/>
<path d="M883.60 197.83Q881.22 197.83 879.82 196.44Q878.42 195.05 878.42 192.55L878.42 189.53Q878.42 187.01 879.81 185.63Q881.20 184.25 883.60 184.25Q886 184.25 887.39 185.63Q888.78 187.01 888.78 189.53L888.78 192.55Q888.78 195.05 887.38 196.44Q885.98 197.83 883.60 197.83M883.60 195.91Q885.02 195.91 885.82 195.12Q886.62 194.33 886.62 192.79L886.62 189.29Q886.62 187.75 885.82 186.96Q885.02 186.17 883.60 186.17Q882.21 186.17 881.39 186.96Q880.58 187.75 880.58 189.29L880.58 192.79Q880.58 194.33 881.39 195.12Q882.21 195.91 883.60 195.91" fill="white" fill-opacity="0.7"/>
<path d="M895.65 197.64L893.49 197.64L893.49 184.44L895.65 184.44L895.65 186.96L895.70 186.96Q895.86 185.69 896.78 184.94Q897.69 184.20 899.22 184.20Q901.29 184.20 902.40 185.44Q903.52 186.67 903.52 188.95L903.52 190.08L901.36 190.08L901.36 188.95Q901.36 186.07 898.55 186.07Q897.14 186.07 896.39 186.89Q895.65 187.70 895.65 189.24" fill="white" fill-opacity="0.7"/>
<path d="M911.25 197.88Q909.21 197.88 908.01 196.74Q906.81 195.60 906.81 193.75Q906.81 192.53 907.36 191.62Q907.91 190.70 908.90 190.19Q909.88 189.67 911.15 189.67L915.23 189.67L915.23 188.64Q915.23 186.07 912.42 186.07Q911.18 186.07 910.41 186.53Q909.64 186.98 909.59 187.80L907.43 187.80Q907.55 186.24 908.88 185.22Q910.22 184.20 912.42 184.20Q914.82 184.20 916.11 185.35Q917.39 186.50 917.39 188.57L917.39 197.64L915.26 197.64L915.26 195.24L915.21 195.24Q915.02 196.46 913.98 197.17Q912.95 197.88 911.25 197.88M911.78 196.06Q913.36 196.06 914.30 195.29Q915.23 194.52 915.23 193.20L915.23 191.35L911.39 191.35Q910.34 191.35 909.68 191.99Q909.02 192.62 909.02 193.68Q909.02 194.78 909.75 195.42Q910.48 196.06 911.78 196.06" fill="white" fill-opacity="0.7"/>
<path d="M923.06 197.64L921.04 197.64L921.04 184.44L922.91 184.44L922.91 186.19L922.96 186.19Q923.08 185.30 923.67 184.75Q924.26 184.20 925.17 184.20Q926.03 184.20 926.63 184.70Q927.23 185.21 927.50 186.07L927.52 186.07Q927.69 185.21 928.28 184.70Q928.86 184.20 929.78 184.20Q931.05 184.20 931.80 185.15Q932.56 186.10 932.56 187.61L932.56 197.64L930.54 197.64L930.54 187.58Q930.54 186.79 930.16 186.32Q929.78 185.86 929.10 185.86Q928.46 185.86 928.07 186.31Q927.69 186.77 927.69 187.56L927.69 197.64L925.91 197.64L925.91 187.58Q925.91 186.79 925.53 186.32Q925.14 185.86 924.50 185.86Q923.82 185.86 923.44 186.31Q923.06 186.77 923.06 187.56" fill="white" fill-opacity="0.7"/>
<path d="M951.81 197.64L949.60 197.64L954.16 180.12L957.06 180.12L961.60 197.64L959.42 197.64L958.26 192.98L952.96 192.98L951.81 197.64M954.74 185.74L953.39 191.16L957.81 191.16L956.46 185.76Q956.08 184.22 955.86 183.19Q955.65 182.16 955.60 181.85Q955.55 182.16 955.34 183.19Q955.12 184.22 954.74 185.74" fill="white" fill-opacity="0.7"/>
<path d="M967.17 197.64L965.01 197.64L965.01 180.12L970.65 180.12Q973.10 180.12 974.55 181.52Q976 182.93 976 185.28Q976 187.63 974.55 189.04Q973.10 190.44 970.65 190.44L967.17 190.44L967.17 197.64M967.17 182.06L967.17 188.50L970.65 188.50Q972.06 188.50 972.92 187.62Q973.77 186.74 973.77 185.28Q973.77 183.79 972.92 182.93Q972.06 182.06 970.65 182.06" fill="white" fill-opacity="0.7"/>
<path d="M989.08 197.64L979.72 197.64L979.72 195.67L983.30 195.67L983.30 182.09L979.72 182.09L979.72 180.12L989.08 180.12L989.08 182.09L985.50 182.09L985.50 195.67L989.08 195.67" fill="white" fill-opacity="0.7"/>
<path d="M999.33 197.83L998.27 197.83Q996.06 197.83 994.85 196.84Q993.64 195.84 993.64 194.02L995.80 194.02Q995.80 194.93 996.45 195.44Q997.10 195.96 998.27 195.96L999.33 195.96Q1000.53 195.96 1001.19 195.43Q1001.85 194.90 1001.85 193.94Q1001.85 192.24 1000.29 192.02L996.64 191.50Q995.30 191.30 994.55 190.38Q993.81 189.46 993.81 187.94Q993.81 186.22 995 185.23Q996.18 184.25 998.27 184.25L999.33 184.25Q1001.25 184.25 1002.46 185.20Q1003.67 186.14 1003.77 187.68L1001.58 187.68Q1001.54 186.98 1000.92 186.53Q1000.31 186.07 999.33 186.07L998.27 186.07Q997.17 186.07 996.54 186.58Q995.92 187.08 995.92 187.94Q995.92 189.34 997.19 189.53L1000.60 190.01Q1003.96 190.49 1003.96 193.94Q1003.96 195.79 1002.75 196.81Q1001.54 197.83 999.33 197.83" fill="white" fill-opacity="0.7"/>
<path d="M76.11 136.06L66.42 136.06L84.56 65.98L97.14 65.98L115.18 136.06L105.49 136.06L101.07 117.82L80.53 117.82L76.11 136.06M87.54 88.92L82.45 109.95L99.15 109.95L94.16 89.02Q92.72 83.26 91.86 79.23Q90.99 75.20 90.80 73.76Q90.61 75.20 89.74 79.23Q88.88 83.26 87.54 88.92M137.55 136.06L128.05 136.06L128.05 65.98L150.80 65.98Q157.52 65.98 162.42 68.57Q167.31 71.16 170 75.82Q172.69 80.48 172.69 86.91Q172.69 93.24 170 97.90Q167.31 102.56 162.37 105.15Q157.42 107.74 150.80 107.74L137.55 107.74L137.55 136.06M137.55 74.43L137.55 99.29L150.80 99.29Q156.37 99.29 159.63 95.88Q162.90 92.48 162.90 86.91Q162.90 81.24 159.63 77.84Q156.37 74.43 150.80 74.43L137.55 74.43M225.10 136.06L186.90 136.06L186.90 127.42L201.20 127.42L201.20 74.62L186.90 74.62L186.90 65.98L225.10 65.98L225.10 74.62L210.80 74.62L210.80 127.42L225.10 127.42L225.10 136.06M263.98 137.02Q253.62 137.02 247.47 131.60Q241.33 126.17 241.33 116.67L250.83 116.67Q250.83 122.24 254.38 125.40Q257.94 128.57 263.98 128.57Q269.74 128.57 273.15 125.36Q276.56 122.14 276.56 116.76Q276.56 112.73 274.35 109.71Q272.14 106.68 268.11 105.63L257.74 102.84Q250.93 100.92 246.94 95.88Q242.96 90.84 242.96 83.93Q242.96 78.27 245.50 74Q248.05 69.72 252.66 67.37Q257.26 65.02 263.31 65.02Q269.46 65.02 274.11 67.37Q278.77 69.72 281.36 73.95Q283.95 78.17 283.95 83.74L274.54 83.74Q274.54 79.13 271.42 76.25Q268.30 73.37 263.31 73.37Q258.32 73.37 255.30 76.25Q252.27 79.13 252.27 83.74Q252.27 87.48 254.29 90.03Q256.30 92.57 259.95 93.63L270.61 96.51Q277.81 98.43 281.84 103.85Q285.87 109.28 285.87 116.76Q285.87 122.91 283.18 127.47Q280.50 132.03 275.55 134.52Q270.61 137.02 263.98 137.02M342.51 136.06L301.71 136.06L301.71 65.98L342.51 65.98L342.51 74.52L311.12 74.52L311.12 95.36L339.15 95.36L339.15 103.61L311.12 103.61L311.12 127.52L342.51 127.52L342.51 136.06M383.60 136.06L374.10 136.06L374.10 74.62L355.09 74.62L355.09 65.98L402.51 65.98L402.51 74.62L383.60 74.62L383.60 136.06M436.40 137.02Q426.51 137.02 421.18 131.55Q415.86 126.08 415.86 116.67L415.86 65.98L425.36 65.98L425.36 116.67Q425.36 122.24 428.10 125.40Q430.83 128.57 436.40 128.57Q441.87 128.57 444.70 125.40Q447.54 122.24 447.54 116.67L447.54 65.98L457.04 65.98L457.04 116.67Q457.04 126.17 451.71 131.60Q446.38 137.02 436.40 137.02M551.98 137.02Q542.29 137.02 536.58 131.60Q530.86 126.17 530.86 116.67L530.86 85.28Q530.86 75.87 536.58 70.44Q542.29 65.02 551.98 65.02Q561.58 65.02 567.30 70.49Q573.01 75.96 573.01 85.28L563.50 85.28Q563.50 79.61 560.43 76.54Q557.36 73.47 551.98 73.47Q546.51 73.47 543.44 76.54Q540.37 79.61 540.37 85.28L540.37 116.67Q540.37 122.43 543.44 125.50Q546.51 128.57 551.98 128.57Q557.36 128.57 560.43 125.50Q563.50 122.43 563.50 116.67L563.50 107.55L549.87 107.55L549.87 99.10L573.01 99.10L573.01 116.67Q573.01 126.08 567.30 131.55Q561.58 137.02 551.98 137.02M609.20 137.02Q599.60 137.02 594.03 131.45Q588.46 125.88 588.46 115.71L588.46 86.24Q588.46 76.16 594.03 70.59Q599.60 65.02 609.20 65.02Q618.80 65.02 624.37 70.54Q629.94 76.06 629.94 86.24L629.94 115.71Q629.94 125.88 624.37 131.45Q618.80 137.02 609.20 137.02M609.20 128.57Q614.58 128.57 617.50 125.50Q620.43 122.43 620.43 116.67L620.43 85.28Q620.43 79.61 617.55 76.54Q614.67 73.47 609.20 73.47Q603.73 73.47 600.85 76.54Q597.97 79.61 597.97 85.28L597.97 116.67Q597.97 122.43 600.90 125.50Q603.82 128.57 609.20 128.57M673.14 136.06L660.37 136.06L642.42 65.98L652.21 65.98L663.82 113.21Q664.98 117.72 665.79 121.90Q666.61 126.08 666.99 128.28Q667.28 126.08 668.19 121.85Q669.10 117.63 670.16 113.12L681.39 65.98L691.18 65.98L673.14 136.06M768.75 136.06L759.73 136.06L759.73 65.98L773.17 65.98L781.81 96.22L790.83 65.98L804.37 65.98L804.37 136.06L795.25 136.06L795.25 103.90Q795.25 98.81 795.44 92.62Q795.63 86.43 795.97 80.24Q796.30 74.04 796.69 69.05L785.74 104.96L777.68 104.96L767.12 69.92Q767.98 76.92 768.37 85.52Q768.75 94.11 768.75 103.90L768.75 136.06M858.70 136.06L820.50 136.06L820.50 127.42L834.80 127.42L834.80 74.62L820.50 74.62L820.50 65.98L858.70 65.98L858.70 74.62L844.40 74.62L844.40 127.42L858.70 127.42L858.70 136.06M918.03 136.06L876.46 136.06L876.46 126.75L907.09 74.62L876.94 74.62L876.94 65.98L916.98 65.98L916.98 75.29L886.26 127.42L918.03 127.42L918.03 136.06M954.80 137.02Q945.20 137.02 939.63 131.45Q934.06 125.88 934.06 115.71L934.06 86.24Q934.06 76.16 939.63 70.59Q945.20 65.02 954.80 65.02Q964.40 65.02 969.97 70.54Q975.54 76.06 975.54 86.24L975.54 115.71Q975.54 125.88 969.97 131.45Q964.40 137.02 954.80 137.02M954.80 128.57Q960.18 128.57 963.10 125.50Q966.03 122.43 966.03 116.67L966.03 85.28Q966.03 79.61 963.15 76.54Q960.27 73.47 954.80 73.47Q949.33 73.47 946.45 76.54Q943.57 79.61 943.57 85.28L943.57 116.67Q943.57 122.43 946.50 125.50Q949.42 128.57 954.80 128.57M1001.55 136.06L992.14 136.06L992.14 65.98L1013.84 65.98Q1020.27 65.98 1025.07 68.52Q1029.87 71.07 1032.56 75.63Q1035.25 80.19 1035.25 86.33Q1035.25 93.44 1031.65 98.52Q1028.05 103.61 1022.10 105.72L1036.21 136.06L1025.74 136.06L1012.40 106.78L1001.55 106.78L1001.55 136.06M1001.55 74.43L1001.55 98.33L1013.84 98.33Q1019.22 98.33 1022.34 95.07Q1025.46 91.80 1025.46 86.43Q1025.46 80.96 1022.29 77.69Q1019.12 74.43 1013.84 74.43L1001.55 74.43M1055.31 136.06L1045.62 136.06L1063.76 65.98L1076.34 65.98L1094.38 136.06L1084.69 136.06L1080.27 117.82L1059.73 117.82L1055.31 136.06M1066.74 88.92L1061.65 109.95L1078.35 109.95L1073.36 89.02Q1071.92 83.26 1071.06 79.23Q1070.19 75.20 NaN 73.76Q1069.81 75.20 1068.94 79.23Q1068.08 83.26 1066.74 88.92M1114.35 136.06L1105.33 136.06L1105.33 65.98L1118.77 65.98L1127.41 96.22L1136.43 65.98L1149.97 65.98L1149.97 136.06L1140.85 136.06L1140.85 103.90Q1140.85 98.81 1141.04 92.62Q1141.23 86.43 1141.57 80.24Q1141.90 74.04 1142.29 69.05L1131.34 104.96L1123.28 104.96L1112.72 69.92Q1113.58 76.92 1113.97 85.52Q1114.35 94.11 1114.35 103.90L1114.35 136.06M1209.39 136.06L1168.69 136.06L1168.69 65.98L1178.19 65.98L1178.19 127.42L1209.39 127.42L1209.39 136.06M1264.11 136.06L1223.31 136.06L1223.31 65.98L1264.11 65.98L1264.11 74.52L1232.72 74.52L1232.72 95.36L1260.75 95.36L1260.75 103.61L1232.72 103.61L1232.72 127.52L1264.11 127.52L1264.11 136.06M1300.78 137.02Q1290.42 137.02 1284.27 131.60Q1278.13 126.17 1278.13 116.67L1287.63 116.67Q1287.63 122.24 1291.18 125.40Q1294.74 128.57 1300.78 128.57Q1306.54 128.57 1309.95 125.36Q1313.36 122.14 1313.36 116.76Q1313.36 112.73 1311.15 109.71Q1308.94 106.68 1304.91 105.63L1294.54 102.84Q1287.73 100.92 1283.74 95.88Q1279.76 90.84 1279.76 83.93Q1279.76 78.27 1282.30 74Q1284.85 69.72 1289.46 67.37Q1294.06 65.02 1300.11 65.02Q1306.26 65.02 1310.91 67.37Q1315.57 69.72 1318.16 73.95Q1320.75 78.17 1320.75 83.74L1311.34 83.74Q1311.34 79.13 1308.22 76.25Q1305.10 73.37 1300.11 73.37Q1295.12 73.37 1292.10 76.25Q1289.07 79.13 1289.07 83.74Q1289.07 87.48 1291.09 90.03Q1293.10 92.57 1296.75 93.63L1307.41 96.51Q1314.61 98.43 1318.64 103.85Q1322.67 109.28 1322.67 116.76Q1322.67 122.91 1319.98 127.47Q1317.30 132.03 1312.35 134.52Q1307.41 137.02 1300.78 137.02M1356.46 136.06L1337.65 136.06L1337.65 65.98L1356.46 65.98Q1363.28 65.98 1368.32 68.62Q1373.36 71.26 1376.14 76.01Q1378.93 80.76 1378.93 87.20L1378.93 114.75Q1378.93 121.18 1376.14 125.98Q1373.36 130.78 1368.32 133.42Q1363.28 136.06 1356.46 136.06M1347.15 74.43L1347.15 127.61L1356.46 127.61Q1362.51 127.61 1365.97 124.16Q1369.42 120.70 1369.42 114.75L1369.42 87.20Q1369.42 81.24 1365.97 77.84Q1362.51 74.43 1356.46 74.43L1347.15 74.43M1436.91 136.06L1396.11 136.06L1396.11 65.98L1436.91 65.98L1436.91 74.52L1405.52 74.52L1405.52 95.36L1433.55 95.36L1433.55 103.61L1405.52 103.61L1405.52 127.52L1436.91 127.52" fill="url(#paint2_linear_0_1)"/>
<g id="Group 1">
<rect id="Rectangle 1" x="26" y="168" width="12" height="184" rx="5" fill="url(#paint3_linear_0_1)" fill-opacity="0.9"/>
</g>
<g id="Group 1_2">
<rect id="Rectangle 2" x="26" y="38" width="12" height="119" rx="5" fill="url(#paint4_linear_0_1)" fill-opacity="0.9"/>
</g>
<ellipse id="Ellipse 1" cx="148.5" cy="573" rx="215.5" ry="214" fill="url(#paint5_linear_0_1)" fill-opacity="0.4"/>
<rect id="Rectangle 3" x="1229" y="48" width="300" height="300" rx="25" fill="#FFFBFB" fill-opacity="0.9"/>
<g id="placeholder-logo"><g transform="translate(1229,48) translate(0.0,60.0) scale(1.2000)"><g fill="#666666">
  <path d="m88.05,27.65c-3.15,4 -3.2,51.2 -0.05,54.35c2.75,2.75 71.7,3.15 74.45,0.45c2.85,-2.9 2.3,-53.85 -0.65,-55.9c-1.95,-1.35 -7.15,-1.55 -36.95,-1.55l-34.7,0l-2.1,2.65zm69.45,3.35c0.65,0 1,8.6 1,23.75l0,23.75l-33,0l-33,0l-0.25,-23c-0.15,-12.6 -0.1,-23.45 0.15,-24.1c0.35,-0.85 8.9,-1.05 32.25,-0.75c17.55,0.2 32.3,0.35 32.85,0.35z"/>
  <path d="m99.15,37.3c-6.85,7.35 4.25,17.35 11.4,10.25c1.35,-1.35 2.45,-3.65 2.45,-5.05c0,-6.45 -9.35,-9.95 -13.85,-5.2z"/>
  <path d="m135,42.5c-0.7,0.85 -5.25,5.15 -10.1,9.6l-8.85,8.1l-3.2,-3.2l-3.15,-3.15l-6.35,6.3c-5.55,5.5 -6.35,6.75 -6.35,10.05l0,3.8l28.5,0l28.5,0l0,-8.6l0,-8.55l-8.15,-7.7c-9.35,-8.85 -9.15,-8.7 -10.85,-6.65zm7.25,15.2c0.95,0.9 1.75,2.9 1.75,4.45c6.35,-5.05 4.75,-7.15 4.9,-11.55c0.95,0 0,0 0,0l-6.65,7.1z"/>
  <path d="m53.65,110.75c0.1,4.8 0.45,8.65 0.75,8.5c0.35,-0.15 1.3,-0.25 2.1,-0.25c1.1,0 1.5,-1.2 1.5,-4.75l0,-4.75l3.25,5c4.9,7.5 6.2,6.75 6.55,-3.75c0.25,-8.15 0.15,-8.75 -1.7,-8.75c-1.65,0 -2.05,0.8 -2.3,4.75l-0.3,4.75l-2.8,-4.75c-4.85,-8.25 -7.25,-6.9 -7.05,4z"/>
  <path d="m91,108.9c0,9.65 0.3,10.1 6.1,10.1c5.8,0 7.15,-2.65 1.65,-3.2l-3.25,-0.3l-0.3,-6.75c-0.25,-5.95 -0.55,-6.75 -2.25,-6.75c-1.75,0 -1.95,0.7 -1.95,6.9z"/>
  <path d="m151,102.45c0,0.25 1,2.15 2.25,4.2c1.2,2.1 2.45,5.8 2.75,8.25c0.65,5.9 4,6.95 4,1.25c0.05,-2.1 1.25,-5.85 2.95,-8.9l2.9,-5.25l-2.5,0c-1.8,0 -2.8,0.85 -3.75,3.1l-1.3,3.05l-1.25,-3.05c-1.1,-2.6 -6.05,-4.8 -6.05,-2.65z"/>
  <path d="m191,107.45c0,9.05 3.4,8.85 4.25,-0.2c0.45,-5 0.35,-5.25 -1.9,-5.25c-2.2,0 -2.35,0.4 -2.35,5.45z"/>
  <path d="m180.8,104.75c-1.3,5.35 0.65,13.6 3.45,14.35c2.3,0.6 2.75,0.4 2.75,-1.2c0,-1.05 -0.45,-1.9 -1,-1.9c-0.55,0 -1,-1.6 -1,-3.5c0,-1.95 0.45,-3.5 1,-3.5c0.55,0 1,-0.7 1,-1.5c0,-0.85 -0.45,-1.5 -1,-1.5c-0.55,0 -1,-0.7 -1,-1.5c0,-2.1 -3.65,-1.9 -4.2,0.25z"/>
  <path d="m71.55,106.55c-2.2,2.25 -2.05,9.7 0.3,11.8c4.5,4.1 10.15,0.75 10.15,-6.1c0,-4.85 -2,-7.25 -6,-7.25c-1.55,0 -3.55,0.7 -4.45,1.55zm6.25,5.8c0.25,3.05 0,3.65 -1.6,3.65c-2.3,0 -3.25,-2.65 -2.05,-5.85c1.25,-3.35 3.3,-2.1 3.65,2.2z"/>
  <path d="m105.75,106.1c-2.5,1.45 -2.45,9.95 0.1,12.25c4.3,3.9 10.15,0.35 10.15,-6.2c0,-6 -5.15,-9.05 -10.25,-6.05zm6.05,6.25c0.25,3.05 0,3.65 -1.6,3.65c-2.3,0 -3.25,-2.65 -2.05,-5.85c1.25,-3.35 3.3,-2.1 3.65,2.2z"/>
  <path d="m119.2,106.2c-3.8,3.8 -0.4,12.55 4.4,11.35c1.9,-0.45 2.45,-0.3 2.15,0.65c-0.25,0.7 -1.55,1.2 -2.85,1.1c-4.05,-0.3 -5.35,0.45 -3.85,2.25c0.85,1.05 2.6,1.45 5.35,1.25l4.1,-0.3l0.3,-8.75l0.3,-8.75l-4.35,0c-2.4,0 -4.9,0.55 -5.55,1.2zm6.6,4.45c0.4,2.85 -2.15,4.85 -3.75,2.95c-0.9,-1.1 -0.9,-2 -0.05,-3.6c1.35,-2.5 3.4,-2.15 3.8,0.65z"/>
  <path d="m133.55,106.55c-2.2,2.25 -2.05,9.7 0.3,11.8c4.5,4.1 10.15,0.75 10.15,-6.1c0,-4.85 -2,-7.25 -6,-7.25c-1.55,0 -3.55,0.7 -4.45,1.55zm6.25,5.8c0.25,3.05 0,3.65 -1.6,3.65c-2.3,0 -3.25,-2.65 -2.05,-5.85c1.25,-3.35 3.3,-2.1 3.65,2.2z"/>
  <path d="m167.65,106.85c-3.9,4.3 -0.75,13.15 4.7,13.15c2.4,0 5.65,-2.75 5.65,-4.85c0,-1.4 -2.65,-1.55 -3.5,-0.15c-0.95,1.55 -4.5,1.15 -4.5,-0.5c0,-1.1 1.1,-1.5 4,-1.5c3.15,0 4,-0.35 4,-1.8c0,-5.3 -6.85,-8.25 -10.35,-4.35z"/>
  <path d="m191,117.5c0,2.15 0.4,2.6 2.25,2.3c1.5,-0.2 2.25,-1 2.25,-2.3c0,-1.3 -0.75,-2.1 -2.25,-2.3c-1.85,-0.3 -2.25,0.15 -2.25,2.3z"/>
 </g></g></g>
</g>
<defs>
<linearGradient id="paint0_linear_0_1" x1="0" y1="198" x2="1584" y2="198" gradientUnits="userSpaceOnUse">
<stop stop-color="#3D052C"/>
<stop offset="1"/>
</linearGradient>
<linearGradient id="paint1_linear_0_1" x1="323" y1="-224" x2="323" y2="352" gradientUnits="userSpaceOnUse">
<stop stop-color="#28F6F2" stop-opacity="0.4"/>
<stop offset="1" stop-color="#17908E" stop-opacity="0.7"/>
</linearGradient>
<linearGradient id="paint2_linear_0_1" x1="148.5" y1="38" x2="148.5" y2="140" gradientUnits="userSpaceOnUse">
<stop stop-color="white"/>
<stop offset="1" stop-color="#999999"/>
</linearGradient>
<linearGradient id="paint3_linear_0_1" x1="38" y1="260" x2="26" y2="260" gradientUnits="userSpaceOnUse">
<stop stop-color="#D9D9D9"/>
<stop offset="1" stop-color="#737373"/>
</linearGradient>
<linearGradient id="paint4_linear_0_1" x1="38" y1="97.5" x2="26" y2="97.5" gradientUnits="userSpaceOnUse">
<stop stop-color="#D9D9D9"/>
<stop offset="1" stop-color="#737373"/>
</linearGradient>
<linearGradient id="paint5_linear_0_1" x1="27.5" y1="434.5" x2="148.5" y2="787" gradientUnits="userSpaceOnUse">
<stop stop-color="#2E21BC"/>
<stop offset="1" stop-color="#150F56"/>
</linearGradient>
<clipPath id="clip0_0_1">
<rect width="1584" height="396" fill="white"/>
</clipPath>
</defs>
</svg>
